                                                                        S      1
,,,9HUWSC_BODY,22HAutoCAD 2025 - English,62HAutodesk Translation FramewoG      1
rk DWG producer (atf_dwg_producer),32,38,7,99,15,,1.,2,2HMM,1,0.08,15H20G      2
250308.215543,0.01,10000.,,7Hunknown,11,0,15H20250308.121345;           G      3
     186       1                       0                        00000000D      1
     186            -181       1       0                               0D      2
     514       2                                                00010000D      3
     514                       2       1                               0D      4
     510       4                                                00010000D      5
     510            -181       1       1                               0D      6
     510       5                                                00010000D      7
     510            -181       1       1                               0D      8
     510       6                                                00010000D      9
     510            -181       1       1                               0D     10
     510       7                                                00010000D     11
     510            -181       1       1                               0D     12
     510       8                                                00010000D     13
     510            -181       1       1                               0D     14
     510       9                                                00010000D     15
     510            -181       1       1                               0D     16
     510      10                                                00010000D     17
     510            -181       1       1                               0D     18
     510      11                                                00010000D     19
     510            -181       1       1                               0D     20
     510      12                                                00010000D     21
     510            -181       1       1                               0D     22
     510      13                                                00010000D     23
     510            -181       1       1                               0D     24
     510      14                                                00010000D     25
     510            -181       1       1                               0D     26
     510      15                                                00010000D     27
     510            -181       1       1                               0D     28
     510      16                                                00010000D     29
     510            -181       1       1                               0D     30
     510      17                                                00010000D     31
     510            -181       1       1                               0D     32
     508      18                                                00010000D     33
     508                       1       1                               0D     34
     508      19                                                00010000D     35
     508                       1       1                               0D     36
     508      20                                                00010000D     37
     508                       1       1                               0D     38
     508      21                                                00010000D     39
     508                       3       1                               0D     40
     508      24                                                00010000D     41
     508                       1       1                               0D     42
     508      25                                                00010000D     43
     508                       1       1                               0D     44
     508      26                                                00010000D     45
     508                       2       1                               0D     46
     508      28                                                00010000D     47
     508                       1       1                               0D     48
     508      29                                                00010000D     49
     508                       1       1                               0D     50
     508      30                                                00010000D     51
     508                       2       1                               0D     52
     508      32                                                00010000D     53
     508                       1       1                               0D     54
     508      33                                                00010000D     55
     508                       2       1                               0D     56
     508      35                                                00010000D     57
     508                       3       1                               0D     58
     508      38                                                00010000D     59
     508                       2       1                               0D     60
     126      40                                                00010000D     61
     126       0               6       0                               0D     62
     126      46                                                00010000D     63
     126       0               4       0                               0D     64
     126      50                                                00010000D     65
     126       0               6       0                               0D     66
     126      56                                                00010000D     67
     126       0               4       0                               0D     68
     126      60                                                00010000D     69
     126       0               4       0                               0D     70
     126      64                                                00010000D     71
     126       0               3       0                               0D     72
     126      67                                                00010000D     73
     126       0               4       0                               0D     74
     126      71                                                00010000D     75
     126       0               6       0                               0D     76
     126      77                                                00010000D     77
     126       0               4       0                               0D     78
     126      81                                                00010000D     79
     126       0               6       0                               0D     80
     126      87                                                00010000D     81
     126       0               4       0                               0D     82
     126      91                                                00010000D     83
     126       0               6       0                               0D     84
     126      97                                                00010000D     85
     126       0               4       0                               0D     86
     126     101                                                00010000D     87
     126       0              11       0                               0D     88
     126     112                                                00010000D     89
     126       0               4       0                               0D     90
     126     116                                                00010000D     91
     126       0              11       0                               0D     92
     126     127                                                00010000D     93
     126       0               6       0                               0D     94
     126     133                                                00010000D     95
     126       0               6       0                               0D     96
     126     139                                                00010000D     97
     126       0               6       0                               0D     98
     126     145                                                00010000D     99
     126       0               4       0                               0D    100
     126     149                                                00010000D    101
     126       0               6       0                               0D    102
     126     155                                                00010000D    103
     126       0               4       0                               0D    104
     126     159                                                00010000D    105
     126       0               6       0                               0D    106
     126     165                                                00010000D    107
     126       0               4       0                               0D    108
     126     169                                                00010000D    109
     126       0               3       0                               0D    110
     126     172                                                00010000D    111
     126       0               4       0                               0D    112
     126     176                                                00010000D    113
     126       0               6       0                               0D    114
     126     182                                                00010000D    115
     126       0               4       0                               0D    116
     126     186                                                00010000D    117
     126       0              11       0                               0D    118
     126     197                                                00010000D    119
     126       0               6       0                               0D    120
     126     203                                                00010000D    121
     126       0               6       0                               0D    122
     126     209                                                00010000D    123
     126       0               4       0                               0D    124
     126     213                                                00010000D    125
     126       0               4       0                               0D    126
     126     217                                                00010000D    127
     126       0               3       0                               0D    128
     126     220                                                00010000D    129
     126       0               4       0                               0D    130
     126     224                                                00010000D    131
     126       0               6       0                               0D    132
     126     230                                                00010000D    133
     126       0               4       0                               0D    134
     126     234                                                00010000D    135
     126       0               3       0                               0D    136
     126     237                                                00010000D    137
     126       0               6       0                               0D    138
     126     243                                                00010000D    139
     126       0              10       0                               0D    140
     126     253                                                00010000D    141
     126       0               3       0                               0D    142
     126     256                                                00010000D    143
     126       0               6       0                               0D    144
     128     262                                                00010000D    145
     128       0    -181      10       0                               0D    146
     128     272                                                00010000D    147
     128       0    -181       7       0                               0D    148
     128     279                                                00010000D    149
     128       0    -181      10       0                               0D    150
     128     289                                                00010000D    151
     128       0    -181      21       0                               0D    152
     128     310                                                00010000D    153
     128       0    -181      10       0                               0D    154
     128     320                                                00010000D    155
     128       0    -181       7       0                               0D    156
     128     327                                                00010000D    157
     128       0    -181       7       0                               0D    158
     128     334                                                00010000D    159
     128       0    -181      10       0                               0D    160
     128     344                                                00010000D    161
     128       0    -181       7       0                               0D    162
     128     351                                                00010000D    163
     128       0    -181       7       0                               0D    164
     128     358                                                00010000D    165
     128       0    -181       7       0                               0D    166
     128     365                                                00010000D    167
     128       0    -181       7       0                               0D    168
     128     372                                                00010000D    169
     128       0    -181      20       0                               0D    170
     128     392                                                00010000D    171
     128       0    -181       7       0                               0D    172
     502     399                                                00010000D    173
     502                      19       1                               0D    174
     504     418                                                00010001D    175
     504                      12       1                               0D    176
     406     430                                                00000000D    177
     406                       1      15                               0D    178
     406     431                       0                        00000000D    179
     406            -181       1       3                               0D    180
     314     432                                                00000200D    181
     314                       1       0                               0D    182
186,3,1,0,0,1,177;                                                     1P      1
514,14,5,1,7,1,9,1,11,1,13,1,15,1,17,1,19,1,21,1,23,1,25,1,27,1,       3P      2
29,1,31,1;                                                             3P      3
510,145,1,1,33;                                                        5P      4
510,147,1,1,35;                                                        7P      5
510,149,1,1,37;                                                        9P      6
510,151,1,1,39;                                                       11P      7
510,153,1,1,41;                                                       13P      8
510,155,1,1,43;                                                       15P      9
510,157,1,1,45;                                                       17P     10
510,159,1,1,47;                                                       19P     11
510,161,1,1,49;                                                       21P     12
510,163,1,1,51;                                                       23P     13
510,165,1,1,53;                                                       25P     14
510,167,1,1,55;                                                       27P     15
510,169,1,1,57;                                                       29P     16
510,171,1,1,59;                                                       31P     17
508,4,0,175,1,1,0,0,175,2,1,0,0,175,3,1,0,0,175,4,1,0;                33P     18
508,4,0,175,4,0,0,0,175,5,0,0,0,175,6,0,0,0,175,7,0,0;                35P     19
508,4,0,175,8,1,0,0,175,9,1,0,0,175,10,1,0,0,175,11,1,0;              37P     20
508,12,0,175,12,1,0,0,175,13,0,0,0,175,14,0,0,0,175,15,1,0,0,         39P     21
175,16,0,0,0,175,11,0,0,0,175,17,1,0,0,175,2,0,0,0,175,18,0,0,0,      39P     22
175,15,0,0,0,175,19,0,0,0,175,20,0,0;                                 39P     23
508,4,0,175,21,1,0,0,175,22,1,0,0,175,23,1,0,0,175,20,1,0;            41P     24
508,4,0,175,22,0,0,0,175,24,0,0,0,175,25,0,0,0,175,26,0,0;            43P     25
508,8,0,175,21,0,0,0,175,19,1,0,0,175,14,1,0,0,175,27,0,0,0,175,      45P     26
28,1,0,0,175,29,1,0,0,175,30,1,0,0,175,24,1,0;                        45P     27
508,4,0,175,27,1,0,0,175,13,1,0,0,175,31,1,0,0,175,32,1,0;            47P     28
508,4,0,175,32,0,0,0,175,33,0,0,0,175,34,0,0,0,175,28,0,0;            49P     29
508,6,0,175,17,0,0,0,175,10,0,0,0,175,35,1,0,0,175,36,0,0,0,175,      51P     30
5,1,0,0,175,3,0,0;                                                    51P     31
508,4,0,175,9,0,0,0,175,37,0,0,0,175,38,0,0,0,175,35,0,0;             53P     32
508,6,0,175,12,0,0,0,175,23,0,0,0,175,26,1,0,0,175,39,0,0,0,175,      55P     33
33,1,0,0,175,31,0,0;                                                  55P     34
508,12,0,175,6,1,0,0,175,36,1,0,0,175,38,1,0,0,175,40,0,0,0,175,      57P     35
41,1,0,0,175,29,0,0,0,175,34,1,0,0,175,39,1,0,0,175,25,1,0,0,         57P     36
175,30,0,0,0,175,41,0,0,0,175,42,0,0;                                 57P     37
508,8,0,175,1,0,0,0,175,7,1,0,0,175,42,1,0,0,175,40,1,0,0,175,        59P     38
37,1,0,0,175,8,0,0,0,175,16,1,0,0,175,18,1,0;                         59P     39
126,2,2,0,0,0,0,-0.679341508157835,-0.679341508157835,                61P     40
-0.679341508157835,0.679341508157832,0.679341508157832,               61P     41
0.679341508157832,1.,0.777986605215507,1.,121.92684266039,            61P     42
57.5377713499575,0.,121.92684266039,59.9604899092192,0.,              61P     43
119.558421607758,60.4705359216954,0.,-0.679341508157835,              61P     44
0.679341508157832,0.,0.,0.;                                           61P     45
126,1,1,0,0,1,0,-178.098040053207,-178.098040053207,                  63P     46
-176.098040053207,-176.098040053207,1.,1.,119.558421607758,           63P     47
60.4705359216954,0.,119.558421607758,60.4705359216954,2.,             63P     48
-178.098040053207,-176.098040053207,0.,0.,0.;                         63P     49
126,2,2,0,0,0,0,-0.679341508157833,-0.679341508157833,                65P     50
-0.679341508157833,0.679341508157835,0.679341508157835,               65P     51
0.679341508157835,1.,0.777986605215508,1.,119.558421607758,           65P     52
60.4705359216954,2.,121.92684266039,59.9604899092192,2.,              65P     53
121.92684266039,57.5377713499575,2.,-0.679341508157833,               65P     54
0.679341508157835,0.,0.,0.;                                           65P     55
126,1,1,0,0,1,0,176.098040053207,176.098040053207,                    67P     56
178.098040053207,178.098040053207,1.,1.,121.92684266039,              67P     57
57.5377713499575,2.,121.92684266039,57.5377713499575,0.,              67P     58
176.098040053207,178.098040053207,0.,0.,0.;                           67P     59
126,1,1,0,0,1,0,-2.68626966596891,-2.68626966596891,                  69P     60
-0.148351242013447,-0.148351242013447,1.,1.,121.92684266039,          69P     61
54.999852926002,2.,121.92684266039,57.5377713499575,2.,               69P     62
-2.68626966596891,-0.148351242013447,0.,0.,0.;                        69P     63
126,1,1,0,0,1,0,-225.,-225.,-223.,-223.,1.,1.,121.92684266039,        71P     64
54.999852926002,0.,121.92684266039,54.999852926002,2.,-225.,          71P     65
-223.,0.,0.,0.;                                                       71P     66
126,1,1,0,0,1,0,18.6483512420134,18.6483512420134,                    73P     67
21.1862696659689,21.1862696659689,1.,1.,121.92684266039,              73P     68
57.5377713499575,0.,121.92684266039,54.999852926002,0.,               73P     69
18.6483512420134,21.1862696659689,0.,0.,0.;                           73P     70
126,2,2,0,0,0,0,5.60384379902175,5.60384379902175,                    75P     71
5.60384379902175,6.96252681533742,6.96252681533742,                   75P     72
6.96252681533742,1.,0.777986605215497,1.,134.295263713021,            75P     73
60.4705359216954,0.,131.92684266039,59.9604899092193,0.,              75P     74
131.92684266039,57.5377713499575,0.,5.60384379902175,                 75P     75
6.96252681533742,0.,0.,0.;                                            75P     76
126,1,1,0,0,1,0,-178.098040053207,-178.098040053207,                  77P     77
-176.098040053207,-176.098040053207,1.,1.,131.92684266039,            77P     78
57.5377713499575,0.,131.92684266039,57.5377713499575,2.,              77P     79
-178.098040053207,-176.098040053207,0.,0.,0.;                         77P     80
126,2,2,0,0,0,0,-0.679341508157835,-0.679341508157835,                79P     81
-0.679341508157835,0.679341508157833,0.679341508157833,               79P     82
0.679341508157833,1.,0.777986605215508,1.,131.92684266039,            79P     83
57.5377713499575,2.,131.92684266039,59.9604899092192,2.,              79P     84
134.295263713021,60.4705359216954,2.,-0.679341508157835,              79P     85
0.679341508157833,0.,0.,0.;                                           79P     86
126,1,1,0,0,1,0,176.098040053207,176.098040053207,                    81P     87
178.098040053207,178.098040053207,1.,1.,134.295263713021,             81P     88
60.4705359216954,2.,134.295263713021,60.4705359216954,0.,             81P     89
176.098040053207,178.098040053207,0.,0.,0.;                           81P     90
126,2,2,0,0,0,0,-1.78290963727413,-1.78290963727413,                  83P     91
-1.78290963727413,-1.35868301631567,-1.35868301631567,                83P     92
-1.35868301631567,1.,0.977588190579299,1.,119.558421607758,           83P     93
60.4705359216955,448.,126.92684266039,58.883726105103,448.,           83P     94
134.295263713021,60.4705359216955,448.,-1.78290963727413,             83P     95
-1.35868301631567,0.,0.,0.;                                           83P     96
126,1,1,0,0,1,0,-271.901959946793,-271.901959946793,                  85P     97
-269.901959946793,-269.901959946793,1.,1.,134.295263713021,           85P     98
60.4705359216955,450.,134.295263713021,60.4705359216955,448.,         85P     99
-271.901959946793,-269.901959946793,0.,0.,0.;                         85P    100
126,6,2,0,0,0,0,-3.14159265358979,-3.14159265358979,                  87P    101
-3.14159265358979,-1.64150076362131,-1.64150076362131,                87P    102
-0.141408873652819,-0.141408873652819,1.35868301631567,               87P    103
1.35868301631567,1.35868301631567,1.,0.731657550219467,1.,            87P    104
0.731657550219467,1.,0.731657550219467,1.,91.9268426603896,           87P    105
94.686122591971,450.,91.9268426603896,127.295002495764,450.,          87P    106
124.454248704869,129.59867447709,450.,156.981654749348,               87P    107
131.902346458416,450.,161.577487182168,99.6189548641392,450.,         87P    108
166.173319614988,67.3355632698624,450.,134.295263713021,              87P    109
60.4705359216955,450.,-3.14159265358979,1.35868301631567,0.,0.,       87P    110
0.;                                                                   87P    111
126,1,1,0,0,1,0,-7.76862742705122,-7.76862742705122,                  89P    112
5.08851543009164,5.08851543009164,1.,1.,91.9268426603896,             89P    113
94.686122591971,450.,91.9268426603896,94.6861225919709,0.,            89P    114
-7.76862742705122,5.08851543009164,0.,0.,0.;                          89P    115
126,6,2,0,0,0,0,-7.64186832349525,-7.64186832349525,                  91P    116
-7.64186832349525,-6.14177643352677,-6.14177643352677,                91P    117
-4.64168454355828,-4.64168454355828,-3.14159265358979,                91P    118
-3.14159265358979,-3.14159265358979,1.,0.731657550219466,1.,          91P    119
0.731657550219467,1.,0.731657550219466,1.,134.295263713021,           91P    120
60.4705359216954,0.,166.173319614988,67.3355632698623,0.,             91P    121
161.577487182168,99.6189548641392,0.,156.981654749348,                91P    122
131.902346458416,0.,124.454248704869,129.59867447709,0.,              91P    123
91.9268426603896,127.295002495764,0.,91.9268426603896,                91P    124
94.6861225919709,0.,-7.64186832349525,-3.14159265358979,0.,0.,        91P    125
0.;                                                                   91P    126
126,2,2,0,0,0,0,1.35868301631567,1.35868301631567,                    93P    127
1.35868301631567,1.78290963727413,1.78290963727413,                   93P    128
1.78290963727413,1.,0.977588190579299,1.,134.295263713021,            93P    129
60.4705359216954,2.,126.92684266039,58.8837261051029,2.,              93P    130
119.558421607758,60.4705359216954,2.,1.35868301631567,                93P    131
1.78290963727413,0.,0.,0.;                                            93P    132
126,2,2,0,0,0,0,-3.14159265358979,-3.14159265358979,                  95P    133
-3.14159265358979,-1.78290963727413,-1.78290963727413,                95P    134
-1.78290963727413,1.,0.777986605215499,1.,91.9268426603896,           95P    135
94.6861225919709,0.,91.9268426603896,66.4210727339172,0.,             95P    136
119.558421607758,60.4705359216954,0.,-3.14159265358979,               95P    137
-1.78290963727413,0.,0.,0.;                                           95P    138
126,2,2,0,0,0,0,-4.50027566990546,-4.50027566990546,                  97P    139
-4.50027566990546,-3.14159265358979,-3.14159265358979,                97P    140
-3.14159265358979,1.,0.777986605215499,1.,119.558421607758,           97P    141
60.4705359216955,450.,91.9268426603896,66.4210727339173,450.,         97P    142
91.9268426603896,94.686122591971,450.,-4.50027566990546,              97P    143
-3.14159265358979,0.,0.,0.;                                           97P    144
126,1,1,0,0,1,0,269.901959946793,269.901959946793,                    99P    145
271.901959946793,271.901959946793,1.,1.,119.558421607758,             99P    146
60.4705359216955,448.,119.558421607758,60.4705359216955,450.,         99P    147
269.901959946793,271.901959946793,0.,0.,0.;                           99P    148
126,2,2,0,0,0,0,5.60384379902175,5.60384379902175,                   101P    149
5.60384379902175,6.96252681533742,6.96252681533742,                  101P    150
6.96252681533742,1.,0.777986605215507,1.,119.558421607758,           101P    151
60.4705359216955,450.,121.92684266039,59.9604899092193,450.,         101P    152
121.92684266039,57.5377713499576,450.,5.60384379902175,              101P    153
6.96252681533742,0.,0.,0.;                                           101P    154
126,1,1,0,0,1,0,-271.901959946793,-271.901959946793,                 103P    155
-269.901959946793,-269.901959946793,1.,1.,121.92684266039,           103P    156
57.5377713499576,450.,121.92684266039,57.5377713499576,448.,         103P    157
-271.901959946793,-269.901959946793,0.,0.,0.;                        103P    158
126,2,2,0,0,0,0,-0.679341508157835,-0.679341508157835,               105P    159
-0.679341508157835,0.679341508157833,0.679341508157833,              105P    160
0.679341508157833,1.,0.777986605215508,1.,121.92684266039,           105P    161
57.5377713499576,448.,121.92684266039,59.9604899092193,448.,         105P    162
119.558421607758,60.4705359216955,448.,-0.679341508157835,           105P    163
0.679341508157833,0.,0.,0.;                                          105P    164
126,1,1,0,0,1,0,-21.1862696659689,-21.1862696659689,                 107P    165
-18.6483512420134,-18.6483512420134,1.,1.,121.92684266039,           107P    166
54.9998529260021,450.,121.92684266039,57.5377713499576,450.,         107P    167
-21.1862696659689,-18.6483512420134,0.,0.,0.;                        107P    168
126,1,1,0,0,1,0,223.,223.,225.,225.,1.,1.,121.92684266039,           109P    169
54.9998529260021,448.,121.92684266039,54.9998529260021,450.,         109P    170
223.,225.,0.,0.,0.;                                                  109P    171
126,1,1,0,0,1,0,0.148351242013391,0.148351242013391,                 111P    172
2.68626966596886,2.68626966596886,1.,1.,121.92684266039,             111P    173
57.5377713499576,448.,121.92684266039,54.9998529260021,448.,         111P    174
0.148351242013391,2.68626966596886,0.,0.,0.;                         111P    175
126,2,2,0,0,0,0,-0.679341508157835,-0.679341508157835,               113P    176
-0.679341508157835,0.679341508157834,0.679341508157834,              113P    177
0.679341508157834,1.,0.777986605215498,1.,131.92684266039,           113P    178
57.5377713499576,450.,131.92684266039,59.9604899092193,450.,         113P    179
134.295263713021,60.4705359216955,450.,-0.679341508157835,           113P    180
0.679341508157834,0.,0.,0.;                                          113P    181
126,1,1,0,0,1,0,18.6483512420134,18.6483512420134,                   115P    182
21.1862696659689,21.1862696659689,1.,1.,131.92684266039,             115P    183
57.5377713499576,450.,131.92684266039,54.9998529260021,450.,         115P    184
18.6483512420134,21.1862696659689,0.,0.,0.;                          115P    185
126,6,2,0,0,0,0,-1.44546849562683,-1.44546849562683,                 117P    186
-1.44546849562683,0.083551887445377,0.083551887445377,               117P    187
1.61257227051759,1.61257227051759,3.14159265358979,                  117P    188
3.14159265358979,3.14159265358979,1.,0.721721481372241,1.,           117P    189
0.721721481372241,1.,0.721721481372241,1.,131.92684266039,           117P    190
54.9998529260021,450.,169.988871818678,59.7952178568269,450.,        117P    191
166.787305505603,98.0243109877026,450.,163.585739192527,             117P    192
136.253404118578,450.,125.256290926458,134.651223078574,450.,        117P    193
86.9268426603896,133.049042038569,450.,86.9268426603896,             117P    194
94.686122591971,450.,-1.44546849562683,3.14159265358979,0.,0.,       117P    195
0.;                                                                  117P    196
126,2,2,0,0,0,0,3.14159265358979,3.14159265358979,                   119P    197
3.14159265358979,4.58706114921662,4.58706114921662,                  119P    198
4.58706114921662,1.,0.749999999999999,1.,86.9268426603896,           119P    199
94.686122591971,450.,86.9268426603896,59.4094384444431,450.,         119P    200
121.92684266039,54.9998529260021,450.,3.14159265358979,              119P    201
4.58706114921662,0.,0.,0.;                                           119P    202
126,2,2,0,0,0,0,-0.679341508157833,-0.679341508157833,               121P    203
-0.679341508157833,0.679341508157835,0.679341508157835,              121P    204
0.679341508157835,1.,0.777986605215508,1.,134.295263713021,          121P    205
60.4705359216955,448.,131.92684266039,59.9604899092193,448.,         121P    206
131.92684266039,57.5377713499576,448.,-0.679341508157833,            121P    207
0.679341508157835,0.,0.,0.;                                          121P    208
126,1,1,0,0,1,0,269.901959946793,269.901959946793,                   123P    209
271.901959946793,271.901959946793,1.,1.,131.92684266039,             123P    210
57.5377713499576,448.,131.92684266039,57.5377713499576,450.,         123P    211
269.901959946793,271.901959946793,0.,0.,0.;                          123P    212
126,1,1,0,0,1,0,-2.68626966596886,-2.68626966596886,                 125P    213
-0.148351242013391,-0.148351242013391,1.,1.,131.92684266039,         125P    214
54.9998529260021,448.,131.92684266039,57.5377713499576,448.,         125P    215
-2.68626966596886,-0.148351242013391,0.,0.,0.;                       125P    216
126,1,1,0,0,1,0,-225.,-225.,-223.,-223.,1.,1.,131.92684266039,       127P    217
54.9998529260021,450.,131.92684266039,54.9998529260021,448.,         127P    218
-225.,-223.,0.,0.,0.;                                                127P    219
126,1,1,0,0,1,0,0.148351242013447,0.148351242013447,                 129P    220
2.68626966596891,2.68626966596891,1.,1.,131.92684266039,             129P    221
57.5377713499575,2.,131.92684266039,54.999852926002,2.,              129P    222
0.148351242013447,2.68626966596891,0.,0.,0.;                         129P    223
126,2,2,0,0,0,0,-1.69612415796296,-1.69612415796296,                 131P    224
-1.69612415796296,-1.44546849562683,-1.44546849562683,               131P    225
-1.44546849562683,1.,0.992156741649226,1.,121.92684266039,           131P    226
54.999852926002,2.,126.92684266039,54.3699121376533,2.,              131P    227
131.92684266039,54.999852926002,2.,-1.69612415796296,                131P    228
-1.44546849562683,0.,0.,0.;                                          131P    229
126,1,1,0,0,1,0,-21.1862696659689,-21.1862696659689,                 133P    230
-18.6483512420134,-18.6483512420134,1.,1.,131.92684266039,           133P    231
54.999852926002,0.,131.92684266039,57.5377713499575,0.,              133P    232
-21.1862696659689,-18.6483512420134,0.,0.,0.;                        133P    233
126,1,1,0,0,1,0,223.,223.,225.,225.,1.,1.,131.92684266039,           135P    234
54.999852926002,2.,131.92684266039,54.999852926002,0.,223.,225.,     135P    235
0.,0.,0.;                                                            135P    236
126,2,2,0,0,0,0,1.44546849562683,1.44546849562683,                   137P    237
1.44546849562683,1.69612415796296,1.69612415796296,                  137P    238
1.69612415796296,1.,0.992156741649226,1.,131.92684266039,            137P    239
54.9998529260021,448.,126.92684266039,54.3699121376534,448.,         137P    240
121.92684266039,54.9998529260021,448.,1.44546849562683,              137P    241
1.69612415796296,0.,0.,0.;                                           137P    242
126,6,2,0,0,0,0,-3.14159265358979,-3.14159265358979,                 139P    243
-3.14159265358979,-1.61257227051759,-1.61257227051759,               139P    244
-0.0835518874453768,-0.0835518874453768,1.44546849562683,            139P    245
1.44546849562683,1.44546849562683,1.,0.721721481372241,1.,           139P    246
0.721721481372241,1.,0.72172148137224,1.,86.9268426603896,           139P    247
94.6861225919709,0.,86.9268426603896,133.049042038569,0.,            139P    248
125.256290926458,134.651223078574,0.,163.585739192527,               139P    249
136.253404118578,0.,166.787305505603,98.0243109877025,0.,            139P    250
169.988871818678,59.7952178568268,0.,131.92684266039,                139P    251
54.999852926002,0.,-3.14159265358979,1.44546849562683,0.,0.,0.;      139P    252
126,1,1,0,0,1,0,-5.625,-5.625,5.625,5.625,1.,1.,                     141P    253
86.9268426603896,94.6861225919709,0.,86.9268426603896,               141P    254
94.686122591971,450.,-5.625,5.625,0.,0.,0.;                          141P    255
126,2,2,0,0,0,0,-4.58706114921662,-4.58706114921662,                 143P    256
-4.58706114921662,-3.14159265358979,-3.14159265358979,               143P    257
-3.14159265358979,1.,0.749999999999999,1.,121.92684266039,           143P    258
54.999852926002,0.,86.9268426603896,59.409438444443,0.,              143P    259
86.9268426603896,94.6861225919709,0.,-4.58706114921662,              143P    260
-3.14159265358979,0.,0.,0.;                                          143P    261
128,1,2,1,2,0,0,0,0,0,58.6993466844024,58.6993466844024,             145P    262
59.3660133510691,59.3660133510691,-0.679341508157833,                145P    263
-0.679341508157833,-0.679341508157833,0.679341508157835,             145P    264
0.679341508157835,0.679341508157835,1.,1.,0.777986605215499,         145P    265
0.777986605215499,1.,1.,119.558421607758,60.4705359216954,0.,        145P    266
119.558421607758,60.4705359216954,2.,121.92684266039,                145P    267
59.9604899092193,0.,121.92684266039,59.9604899092193,2.,             145P    268
121.92684266039,57.5377713499575,0.,121.92684266039,                 145P    269
57.5377713499575,2.,58.6993466844024,59.3660133510691,               145P    270
-0.679341508157833,0.679341508157835;                                145P    271
128,1,1,1,1,0,0,1,0,0,-1.001,-1.001,1.001,1.001,                     147P    272
0.147351242013447,0.147351242013447,2.68726966596891,                147P    273
2.68726966596891,1.,1.,1.,1.,121.92684266039,57.5387713499575,       147P    274
-0.00100000000000477,121.92684266039,57.5387713499575,2.001,         147P    275
121.92684266039,54.9988529260021,-0.00100000000000477,               147P    276
121.92684266039,54.998852926002,2.001,-1.001,1.001,                  147P    277
0.147351242013447,2.68726966596891;                                  147P    278
128,1,2,1,2,0,0,0,0,0,-59.3660133510691,-59.3660133510691,           149P    279
-58.6993466844024,-58.6993466844024,-0.679341508157835,              149P    280
-0.679341508157835,-0.679341508157835,0.679341508157835,             149P    281
0.679341508157835,0.679341508157835,1.,1.,0.777986605215499,         149P    282
0.777986605215499,1.,1.,134.295263713021,60.4705359216954,2.,        149P    283
134.295263713021,60.4705359216954,0.,131.92684266039,                149P    284
59.9604899092193,2.,131.92684266039,59.9604899092193,0.,             149P    285
131.92684266039,57.5377713499575,2.,131.92684266039,                 149P    286
57.5377713499575,0.,-59.3660133510691,-58.6993466844024,             149P    287
-0.679341508157835,0.679341508157835;                                149P    288
128,1,8,1,2,0,1,0,0,1,-7.76862742705122,-7.76862742705122,           151P    289
5.08851543009164,5.08851543009164,-3.14159265358979,                 151P    290
-3.14159265358979,-3.14159265358979,-1.5707963267949,                151P    291
-1.5707963267949,0.,0.,1.5707963267949,1.5707963267949,              151P    292
3.14159265358979,3.14159265358979,3.14159265358979,1.,1.,            151P    293
0.707106781186548,0.707106781186548,1.,1.,0.707106781186548,         151P    294
0.707106781186548,1.,1.,0.707106781186548,0.707106781186548,1.,      151P    295
1.,0.707106781186548,0.707106781186548,1.,1.,91.9268426603896,       151P    296
94.686122591971,450.,91.9268426603896,94.6861225919709,0.,           151P    297
91.9268426603896,129.686122591971,450.,91.9268426603896,             151P    298
129.686122591971,0.,126.92684266039,129.686122591971,450.,           151P    299
126.92684266039,129.686122591971,0.,161.92684266039,                 151P    300
129.686122591971,450.,161.92684266039,129.686122591971,0.,           151P    301
161.92684266039,94.686122591971,450.,161.92684266039,                151P    302
94.6861225919709,0.,161.92684266039,59.686122591971,450.,            151P    303
161.92684266039,59.6861225919709,0.,126.92684266039,                 151P    304
59.686122591971,450.,126.92684266039,59.6861225919709,0.,            151P    305
91.9268426603896,59.686122591971,450.,91.9268426603896,              151P    306
59.6861225919709,0.,91.9268426603896,94.686122591971,450.,           151P    307
91.9268426603896,94.6861225919709,0.,-7.76862742705122,              151P    308
5.08851543009164,-3.14159265358979,3.14159265358979;                 151P    309
128,1,2,1,2,0,0,0,0,0,-90.6339866489309,-90.6339866489309,           153P    310
-89.9673199822642,-89.9673199822642,-0.679341508157833,              153P    311
-0.679341508157833,-0.679341508157833,0.679341508157835,             153P    312
0.679341508157835,0.679341508157835,1.,1.,0.777986605215499,         153P    313
0.777986605215499,1.,1.,119.558421607758,60.4705359216955,448.,      153P    314
119.558421607758,60.4705359216955,450.,121.92684266039,              153P    315
59.9604899092193,448.,121.92684266039,59.9604899092193,450.,         153P    316
121.92684266039,57.5377713499576,448.,121.92684266039,               153P    317
57.5377713499576,450.,-90.6339866489309,-89.9673199822642,           153P    318
-0.679341508157833,0.679341508157835;                                153P    319
128,1,1,1,1,0,0,1,0,0,-1.001,-1.001,1.001,1.001,                     155P    320
0.14735124201339,0.14735124201339,2.68726966596886,                  155P    321
2.68726966596886,1.,1.,1.,1.,121.92684266039,57.5387713499576,       155P    322
447.999,121.92684266039,57.5387713499576,450.001,                    155P    323
121.92684266039,54.9988529260021,447.999,121.92684266039,            155P    324
54.9988529260021,450.001,-1.001,1.001,0.14735124201339,              155P    325
2.68726966596886;                                                    155P    326
128,1,1,1,1,0,0,1,0,0,-42.2751593835539,-42.2751593835539,           157P    327
42.2751593835539,42.2751593835539,-40.001,-40.001,                   157P    328
39.6872696659689,39.6872696659689,1.,1.,1.,1.,169.202002043943,      157P    329
134.687122591971,450.,84.6516832768357,134.687122591971,450.,        157P    330
169.202002043943,54.9988529260021,450.,84.6516832768357,             157P    331
54.9988529260021,450.,-42.2751593835539,42.2751593835539,            157P    332
-40.001,39.6872696659689;                                            157P    333
128,1,2,1,2,0,0,0,0,0,89.9673199822642,89.9673199822642,             159P    334
90.6339866489309,90.6339866489309,-0.679341508157834,                159P    335
-0.679341508157834,-0.679341508157834,0.679341508157835,             159P    336
0.679341508157835,0.679341508157835,1.,1.,0.777986605215499,         159P    337
0.777986605215499,1.,1.,134.295263713021,60.4705359216955,450.,      159P    338
134.295263713021,60.4705359216955,448.,131.92684266039,              159P    339
59.9604899092193,450.,131.92684266039,59.9604899092193,448.,         159P    340
131.92684266039,57.5377713499576,450.,131.92684266039,               159P    341
57.5377713499576,448.,89.9673199822642,90.6339866489309,             159P    342
-0.679341508157834,0.679341508157835;                                159P    343
128,1,1,1,1,0,0,1,0,0,-1.001,-1.001,1.001,1.001,                     161P    344
0.14735124201339,0.14735124201339,2.68726966596886,                  161P    345
2.68726966596886,1.,1.,1.,1.,131.92684266039,57.5387713499576,       161P    346
450.001,131.92684266039,57.5387713499576,447.999,                    161P    347
131.92684266039,54.9988529260021,450.001,131.92684266039,            161P    348
54.9988529260021,447.999,-1.001,1.001,0.14735124201339,              161P    349
2.68726966596886;                                                    161P    350
128,1,1,1,1,0,0,1,0,0,-7.36942105263158,-7.36942105263158,           163P    351
7.36942105263158,7.36942105263158,-2.78541332972445,                 163P    352
-2.78541332972445,3.31721045431763,3.31721045431763,1.,1.,1.,1.,     163P    353
119.557421607758,60.4715359216954,2.,134.296263713021,               163P    354
60.4715359216954,2.,119.557421607758,54.3689121376533,2.,            163P    355
134.296263713021,54.3689121376533,2.,-7.36942105263158,              163P    356
7.36942105263158,-2.78541332972445,3.31721045431763;                 163P    357
128,1,1,1,1,0,0,1,0,0,-1.001,-1.001,1.001,1.001,                     165P    358
0.147351242013447,0.147351242013447,2.68726966596891,                165P    359
2.68726966596891,1.,1.,1.,1.,131.92684266039,57.5387713499575,       165P    360
2.001,131.92684266039,57.5387713499575,-0.00100000000000477,         165P    361
131.92684266039,54.9988529260021,2.001,131.92684266039,              165P    362
54.998852926002,-0.00100000000000477,-1.001,1.001,                   165P    363
0.147351242013447,2.68726966596891;                                  165P    364
128,1,1,1,1,0,0,1,0,0,-7.36942105263158,-7.36942105263158,           167P    365
7.36942105263158,7.36942105263158,-2.78541332972451,                 167P    366
-2.78541332972451,3.31721045431757,3.31721045431757,1.,1.,1.,1.,     167P    367
134.296263713021,60.4715359216955,448.,119.557421607758,             167P    368
60.4715359216955,448.,134.296263713021,54.3689121376534,448.,        167P    369
119.557421607758,54.3689121376534,448.,-7.36942105263158,            167P    370
7.36942105263158,-2.78541332972451,3.31721045431757;                 167P    371
128,1,8,1,2,0,1,0,0,1,-5.625,-5.625,5.625,5.625,                     169P    372
-3.14159265358979,-3.14159265358979,-3.14159265358979,               169P    373
-1.5707963267949,-1.5707963267949,0.,0.,1.5707963267949,             169P    374
1.5707963267949,3.14159265358979,3.14159265358979,                   169P    375
3.14159265358979,1.,1.,0.707106781186548,0.707106781186548,1.,       169P    376
1.,0.707106781186548,0.707106781186548,1.,1.,0.707106781186548,      169P    377
0.707106781186548,1.,1.,0.707106781186548,0.707106781186548,1.,      169P    378
1.,86.9268426603896,94.6861225919709,0.,86.9268426603896,            169P    379
94.686122591971,450.,86.9268426603896,134.686122591971,0.,           169P    380
86.9268426603896,134.686122591971,450.,126.92684266039,              169P    381
134.686122591971,0.,126.92684266039,134.686122591971,450.,           169P    382
166.92684266039,134.686122591971,0.,166.92684266039,                 169P    383
134.686122591971,450.,166.92684266039,94.6861225919709,0.,           169P    384
166.92684266039,94.686122591971,450.,166.92684266039,                169P    385
54.6861225919709,0.,166.92684266039,54.686122591971,450.,            169P    386
126.92684266039,54.6861225919709,0.,126.92684266039,                 169P    387
54.686122591971,450.,86.9268426603896,54.6861225919709,0.,           169P    388
86.9268426603896,54.686122591971,450.,86.9268426603896,              169P    389
94.6861225919709,0.,86.9268426603896,94.686122591971,450.,           169P    390
-5.625,5.625,-3.14159265358979,3.14159265358979;                     169P    391
128,1,1,1,1,0,0,1,0,0,-40.001,-40.001,43.0630291582885,              171P    392
43.0630291582885,-41.5682815266073,-41.5682815266073,                171P    393
39.6872696659689,39.6872696659689,1.,1.,1.,1.,86.9258426603896,      171P    394
136.254404118578,0.,169.989871818678,136.254404118578,0.,            171P    395
86.9258426603896,54.998852926002,0.,169.989871818678,                171P    396
54.998852926002,0.,-40.001,43.0630291582885,-41.5682815266073,       171P    397
39.6872696659689;                                                    171P    398
502,28,121.92684266039,57.5377713499575,0.,119.558421607758,         173P    399
60.4705359216954,0.,119.558421607758,60.4705359216954,2.,            173P    400
121.92684266039,57.5377713499575,2.,121.92684266039,                 173P    401
54.999852926002,2.,121.92684266039,54.999852926002,0.,               173P    402
134.295263713021,60.4705359216954,0.,131.92684266039,                173P    403
57.5377713499575,0.,131.92684266039,57.5377713499575,2.,             173P    404
134.295263713021,60.4705359216954,2.,119.558421607758,               173P    405
60.4705359216955,448.,134.295263713021,60.4705359216955,448.,        173P    406
134.295263713021,60.4705359216955,450.,91.9268426603896,             173P    407
94.686122591971,450.,91.9268426603896,94.6861225919709,0.,           173P    408
119.558421607758,60.4705359216955,450.,121.92684266039,              173P    409
57.5377713499576,450.,121.92684266039,57.5377713499576,448.,         173P    410
121.92684266039,54.9998529260021,450.,121.92684266039,               173P    411
54.9998529260021,448.,131.92684266039,57.5377713499576,450.,         173P    412
131.92684266039,54.9998529260021,450.,86.9268426603896,              173P    413
94.686122591971,450.,131.92684266039,57.5377713499576,448.,          173P    414
131.92684266039,54.9998529260021,448.,131.92684266039,               173P    415
54.999852926002,2.,131.92684266039,54.999852926002,0.,               173P    416
86.9268426603896,94.6861225919709,0.;                                173P    417
504,42,61,173,1,173,2,63,173,2,173,3,65,173,3,173,4,67,173,4,        175P    418
173,1,69,173,5,173,4,71,173,6,173,5,73,173,1,173,6,75,173,7,173,     175P    419
8,77,173,8,173,9,79,173,9,173,10,81,173,10,173,7,83,173,11,173,      175P    420
12,85,173,13,173,12,87,173,14,173,13,89,173,14,173,15,91,173,7,      175P    421
173,15,93,173,10,173,3,95,173,15,173,2,97,173,16,173,14,99,173,      175P    422
11,173,16,101,173,16,173,17,103,173,17,173,18,105,173,18,173,11,     175P    423
107,173,19,173,17,109,173,20,173,19,111,173,18,173,20,113,173,       175P    424
21,173,13,115,173,21,173,22,117,173,22,173,23,119,173,23,173,19,     175P    425
121,173,12,173,24,123,173,24,173,21,125,173,25,173,24,127,173,       175P    426
22,173,25,129,173,9,173,26,131,173,5,173,26,133,173,27,173,8,        175P    427
135,173,26,173,27,137,173,25,173,20,139,173,28,173,27,141,173,       175P    428
28,173,23,143,173,6,173,28;                                          175P    429
406,1,2H66;                                                          177P    430
406,2,0,1H0;                                                         179P    431
314,100.,100.,100.,;                                                 181P    432
S      1G      3D    182P    432                                        T      1
